<?xml version="1.0" encoding="UTF-8"?>
<svg xmlns="http://www.w3.org/2000/svg" width="1024" height="1024" viewBox="0 0 1024 1024" role="img" aria-labelledby="title desc">
  <title id="title">MediaX Icon</title>
  <desc id="desc">MediaX tray-first transparent icon</desc>
  <g transform="rotate(-24 512 512)" fill="rgba(71, 85, 105, 0.18)" font-family="Inter, Segoe UI, sans-serif" font-size="48" font-weight="500">
    <text x="-1024" y="-1024">zezeping.com</text>
    <text x="-664" y="-1024">zezeping.com</text>
    <text x="-304" y="-1024">zezeping.com</text>
    <text x="56" y="-1024">zezeping.com</text>
    <text x="416" y="-1024">zezeping.com</text>
    <text x="776" y="-1024">zezeping.com</text>
    <text x="1136" y="-1024">zezeping.com</text>
    <text x="1496" y="-1024">zezeping.com</text>
    <text x="1856" y="-1024">zezeping.com</text>
    <text x="-1024" y="-854">zezeping.com</text>
    <text x="-664" y="-854">zezeping.com</text>
    <text x="-304" y="-854">zezeping.com</text>
    <text x="56" y="-854">zezeping.com</text>
    <text x="416" y="-854">zezeping.com</text>
    <text x="776" y="-854">zezeping.com</text>
    <text x="1136" y="-854">zezeping.com</text>
    <text x="1496" y="-854">zezeping.com</text>
    <text x="1856" y="-854">zezeping.com</text>
    <text x="-1024" y="-684">zezeping.com</text>
    <text x="-664" y="-684">zezeping.com</text>
    <text x="-304" y="-684">zezeping.com</text>
    <text x="56" y="-684">zezeping.com</text>
    <text x="416" y="-684">zezeping.com</text>
    <text x="776" y="-684">zezeping.com</text>
    <text x="1136" y="-684">zezeping.com</text>
    <text x="1496" y="-684">zezeping.com</text>
    <text x="1856" y="-684">zezeping.com</text>
    <text x="-1024" y="-514">zezeping.com</text>
    <text x="-664" y="-514">zezeping.com</text>
    <text x="-304" y="-514">zezeping.com</text>
    <text x="56" y="-514">zezeping.com</text>
    <text x="416" y="-514">zezeping.com</text>
    <text x="776" y="-514">zezeping.com</text>
    <text x="1136" y="-514">zezeping.com</text>
    <text x="1496" y="-514">zezeping.com</text>
    <text x="1856" y="-514">zezeping.com</text>
    <text x="-1024" y="-344">zezeping.com</text>
    <text x="-664" y="-344">zezeping.com</text>
    <text x="-304" y="-344">zezeping.com</text>
    <text x="56" y="-344">zezeping.com</text>
    <text x="416" y="-344">zezeping.com</text>
    <text x="776" y="-344">zezeping.com</text>
    <text x="1136" y="-344">zezeping.com</text>
    <text x="1496" y="-344">zezeping.com</text>
    <text x="1856" y="-344">zezeping.com</text>
    <text x="-1024" y="-174">zezeping.com</text>
    <text x="-664" y="-174">zezeping.com</text>
    <text x="-304" y="-174">zezeping.com</text>
    <text x="56" y="-174">zezeping.com</text>
    <text x="416" y="-174">zezeping.com</text>
    <text x="776" y="-174">zezeping.com</text>
    <text x="1136" y="-174">zezeping.com</text>
    <text x="1496" y="-174">zezeping.com</text>
    <text x="1856" y="-174">zezeping.com</text>
    <text x="-1024" y="-4">zezeping.com</text>
    <text x="-664" y="-4">zezeping.com</text>
    <text x="-304" y="-4">zezeping.com</text>
    <text x="56" y="-4">zezeping.com</text>
    <text x="416" y="-4">zezeping.com</text>
    <text x="776" y="-4">zezeping.com</text>
    <text x="1136" y="-4">zezeping.com</text>
    <text x="1496" y="-4">zezeping.com</text>
    <text x="1856" y="-4">zezeping.com</text>
    <text x="-1024" y="166">zezeping.com</text>
    <text x="-664" y="166">zezeping.com</text>
    <text x="-304" y="166">zezeping.com</text>
    <text x="56" y="166">zezeping.com</text>
    <text x="416" y="166">zezeping.com</text>
    <text x="776" y="166">zezeping.com</text>
    <text x="1136" y="166">zezeping.com</text>
    <text x="1496" y="166">zezeping.com</text>
    <text x="1856" y="166">zezeping.com</text>
    <text x="-1024" y="336">zezeping.com</text>
    <text x="-664" y="336">zezeping.com</text>
    <text x="-304" y="336">zezeping.com</text>
    <text x="56" y="336">zezeping.com</text>
    <text x="416" y="336">zezeping.com</text>
    <text x="776" y="336">zezeping.com</text>
    <text x="1136" y="336">zezeping.com</text>
    <text x="1496" y="336">zezeping.com</text>
    <text x="1856" y="336">zezeping.com</text>
    <text x="-1024" y="506">zezeping.com</text>
    <text x="-664" y="506">zezeping.com</text>
    <text x="-304" y="506">zezeping.com</text>
    <text x="56" y="506">zezeping.com</text>
    <text x="416" y="506">zezeping.com</text>
    <text x="776" y="506">zezeping.com</text>
    <text x="1136" y="506">zezeping.com</text>
    <text x="1496" y="506">zezeping.com</text>
    <text x="1856" y="506">zezeping.com</text>
    <text x="-1024" y="676">zezeping.com</text>
    <text x="-664" y="676">zezeping.com</text>
    <text x="-304" y="676">zezeping.com</text>
    <text x="56" y="676">zezeping.com</text>
    <text x="416" y="676">zezeping.com</text>
    <text x="776" y="676">zezeping.com</text>
    <text x="1136" y="676">zezeping.com</text>
    <text x="1496" y="676">zezeping.com</text>
    <text x="1856" y="676">zezeping.com</text>
    <text x="-1024" y="846">zezeping.com</text>
    <text x="-664" y="846">zezeping.com</text>
    <text x="-304" y="846">zezeping.com</text>
    <text x="56" y="846">zezeping.com</text>
    <text x="416" y="846">zezeping.com</text>
    <text x="776" y="846">zezeping.com</text>
    <text x="1136" y="846">zezeping.com</text>
    <text x="1496" y="846">zezeping.com</text>
    <text x="1856" y="846">zezeping.com</text>
    <text x="-1024" y="1016">zezeping.com</text>
    <text x="-664" y="1016">zezeping.com</text>
    <text x="-304" y="1016">zezeping.com</text>
    <text x="56" y="1016">zezeping.com</text>
    <text x="416" y="1016">zezeping.com</text>
    <text x="776" y="1016">zezeping.com</text>
    <text x="1136" y="1016">zezeping.com</text>
    <text x="1496" y="1016">zezeping.com</text>
    <text x="1856" y="1016">zezeping.com</text>
    <text x="-1024" y="1186">zezeping.com</text>
    <text x="-664" y="1186">zezeping.com</text>
    <text x="-304" y="1186">zezeping.com</text>
    <text x="56" y="1186">zezeping.com</text>
    <text x="416" y="1186">zezeping.com</text>
    <text x="776" y="1186">zezeping.com</text>
    <text x="1136" y="1186">zezeping.com</text>
    <text x="1496" y="1186">zezeping.com</text>
    <text x="1856" y="1186">zezeping.com</text>
    <text x="-1024" y="1356">zezeping.com</text>
    <text x="-664" y="1356">zezeping.com</text>
    <text x="-304" y="1356">zezeping.com</text>
    <text x="56" y="1356">zezeping.com</text>
    <text x="416" y="1356">zezeping.com</text>
    <text x="776" y="1356">zezeping.com</text>
    <text x="1136" y="1356">zezeping.com</text>
    <text x="1496" y="1356">zezeping.com</text>
    <text x="1856" y="1356">zezeping.com</text>
    <text x="-1024" y="1526">zezeping.com</text>
    <text x="-664" y="1526">zezeping.com</text>
    <text x="-304" y="1526">zezeping.com</text>
    <text x="56" y="1526">zezeping.com</text>
    <text x="416" y="1526">zezeping.com</text>
    <text x="776" y="1526">zezeping.com</text>
    <text x="1136" y="1526">zezeping.com</text>
    <text x="1496" y="1526">zezeping.com</text>
    <text x="1856" y="1526">zezeping.com</text>
    <text x="-1024" y="1696">zezeping.com</text>
    <text x="-664" y="1696">zezeping.com</text>
    <text x="-304" y="1696">zezeping.com</text>
    <text x="56" y="1696">zezeping.com</text>
    <text x="416" y="1696">zezeping.com</text>
    <text x="776" y="1696">zezeping.com</text>
    <text x="1136" y="1696">zezeping.com</text>
    <text x="1496" y="1696">zezeping.com</text>
    <text x="1856" y="1696">zezeping.com</text>
    <text x="-1024" y="1866">zezeping.com</text>
    <text x="-664" y="1866">zezeping.com</text>
    <text x="-304" y="1866">zezeping.com</text>
    <text x="56" y="1866">zezeping.com</text>
    <text x="416" y="1866">zezeping.com</text>
    <text x="776" y="1866">zezeping.com</text>
    <text x="1136" y="1866">zezeping.com</text>
    <text x="1496" y="1866">zezeping.com</text>
    <text x="1856" y="1866">zezeping.com</text>
    <text x="-1024" y="2036">zezeping.com</text>
    <text x="-664" y="2036">zezeping.com</text>
    <text x="-304" y="2036">zezeping.com</text>
    <text x="56" y="2036">zezeping.com</text>
    <text x="416" y="2036">zezeping.com</text>
    <text x="776" y="2036">zezeping.com</text>
    <text x="1136" y="2036">zezeping.com</text>
    <text x="1496" y="2036">zezeping.com</text>
    <text x="1856" y="2036">zezeping.com</text>
  </g>
  <g fill="none" stroke-linecap="round" stroke-linejoin="round">
    <path d="M 170 860 L 170 170" stroke="#1D4ED8" stroke-width="96" />
    <path d="M 170 170 L 356 510" stroke="#1D4ED8" stroke-width="96" />
    <path d="M 356 510 L 542 170" stroke="#1D4ED8" stroke-width="96" />
    <path d="M 542 170 L 542 860" stroke="#1D4ED8" stroke-width="96" />
    <path d="M 620 220 L 874 804" stroke="#2563EB" stroke-width="92" />
    <path d="M 874 220 L 620 804" stroke="#60A5FA" stroke-width="92" />
  </g>
</svg>